# xmcd database file
#
# Track frame offsets:
# 150
# 16585
# 30022
#
# Disc length: 612 seconds
#
# Revision: 3
# Processed by: cddbd v1.5.2PL0 Copyright (c) Steve Scherf et al.
# Submitted via: CD-Runner 2008.20
#
DISCID=0b026203
DTITLE=Leerone - 3-Song Sampler
DYEAR=2007
DGENRE=Rock
TTITLE0=To Fill The Void
TTITLE1=Care For Some Whiskey?
TTITLE2=More Than  This (B-side)
EXTD=
EXTT0=
EXTT1=
EXTT2=
PLAYORDER=
